# xmcd
#
# Track frame offsets:
#	150
#	19485
#	38427
#	65212
#	80970
#	105622
#	125327
#	139877
#	156367
#	171585
#	197047
#
# Disc length: 2843 seconds
#
# Revision: 1
# Processed by: cddbd v1.5.1PL2 Copyright (c) Steve Scherf et al.
# Submitted via: audiograbber 1.82.02
#
DISCID=a40b190b
DTITLE=Mike McClellan - The Heartland
DYEAR=1989
DGENRE=Country
TTITLE0=Murmur Of The Heart
TTITLE1=The Heartland
TTITLE2=Storm Out On The Ocean
TTITLE3=Sing Me Home Tonight
TTITLE4=River Of The Night
TTITLE5=I Love That Old Rock 'N' Roll
TTITLE6=Face To Face
TTITLE7=A Fool Like That
TTITLE8=Somebody Else
TTITLE9=Sacred Ground
TTITLE10=Oh Babe
EXTD=
EXTT0=
EXTT1=
EXTT2=
EXTT3=
EXTT4=
EXTT5=
EXTT6=
EXTT7=
EXTT8=
EXTT9=
EXTT10=
PLAYORDER=
